<svg xmlns:dc="http://purl.org/dc/elements/1.1/"
    xmlns:cc="http://creativecommons.org/ns#"
    xmlns:rdf="http://www.w3.org/1999/02/22-rdf-syntax-ns#"
    xmlns:svg="http://www.w3.org/2000/svg"
    xmlns="http://www.w3.org/2000/svg"
    xmlns:sodipodi="http://sodipodi.sourceforge.net/DTD/sodipodi-0.dtd"
    xmlns:inkscape="http://www.inkscape.org/namespaces/inkscape" version="1.1" x="0px" y="0px" viewBox="0 0 100 125">
    <g transform="translate(0,-952.36218)">
        <path style="color:#000000;enable-background:accumulate;" d="m 7.0106173,962.36224 c -1.1046,0 -2,0.89543 -2,2 0,1.10457 0.8954,2 2,2 l 12.3749997,0 10.5312,49.81246 c -0.1074,1.1395 0.9507,2.245 2.0938,2.1875 l 50,0 c 1.0566,0.015 2.0285,-0.9432 2.0285,-2 0,-1.0567 -0.9719,-2.0149 -2.0285,-2 l -48.375,0 -1.6875,-7.9999 54.0625,0 c 0.8955,-0.01 1.7416,-0.6888 1.9375,-1.5625 l 7,-30.00005 c 0.2601,-1.16072 -0.748,-2.429 -1.9375,-2.4375 l -68.25,0 -1.7812,-8.43751 c -0.1982,-0.88398 -1.0629,-1.57023 -1.9688,-1.5625 z m 18.5937997,14.00001 64.9062,0 -6.0938,26.00005 -53.3124,0 z m 16.4062,47.99995 c -4.9468,0 -9,4.0531 -9,9 0,4.9469 4.0532,9 9,9 4.9469,0 9,-4.0531 9,-9 0,-4.9468 -4.0531,-9 -9,-9 z m 30,0 c -4.9468,0 -9,4.0531 -9,9 0,4.9469 4.0532,9 9,9 4.9469,0 9,-4.0531 9,-9 0,-4.9468 -4.0531,-9 -9,-9 z m -30,4 c 2.7851,0 5,2.2149 5,5 0,2.7852 -2.2149,5 -5,5 -2.785,0 -5,-2.2149 -5,-5 0,-2.785 2.215,-5 5,-5 z m 30,0 c 2.7851,0 5,2.2149 5,5 0,2.7852 -2.2149,5 -5,5 -2.785,0 -5,-2.2149 -5,-5 0,-2.785 2.215,-5 5,-5 z" fill="#000000" stroke="none" marker="none" visibility="visible" display="inline" overflow="visible"/>
    </g>
</svg>